<svg height="86.975594mm" viewBox="0 0 298.62839 86.975594" width="298.62839mm" xmlns="http://www.w3.org/2000/svg"><g fill="#1a1a1a" transform="translate(21.619994 -12.155784)"><path d="m13.070799 48.9692h34.211196v33.411869h-36.68911q-6.9541451 0-12.869165-2.07825-5.9150199-2.078251-10.231386-5.675222-4.236433-3.676904-6.714347-8.632732-2.397981-5.03576-2.397981-10.870847 0-5.835087 2.397981-10.63105 2.477914-4.875894 6.714347-8.313 4.3163661-3.517039 10.231386-5.355491 5.9150199-1.918385 12.869165-1.918385h38.287764l-10.710982 13.90829h-27.576782q-3.3571736 0-6.2347508.959192-2.8775773.959193-5.03576019 2.717712-2.07825021 1.758519-3.27724071 4.1565-1.1989906 2.318049-1.1989906 5.195626 0 2.877577 1.1190579 5.275558 1.1989905 2.318049 3.27724071 3.996635 2.15818289 1.678587 5.03576019 2.637779 2.8775772.87926 6.3146835.87926h20.222973v-7.753472h-27.6567143z"/><path d="m203.29712 55.124018q0 5.835087-2.47791 10.870847-2.39798 4.955828-6.71435 8.632732-4.23643 3.596971-10.15145 5.675222-5.91502 2.07825-12.86916 2.07825h-35.80985v-33.331937h16.626v19.583512h19.18385q3.4371 0 6.31468-.87926 2.95751-.959192 5.03576-2.637779 2.07825-1.678586 3.27724-3.996635 1.19899-2.397981 1.19899-5.275558 0-2.797645-1.19899-5.195626-1.19899-2.397981-3.35717-4.076567-2.15819-1.75852-5.03576-2.717712-2.87758-1.039125-6.23475-1.039125h-35.80985l10.55111-13.90829h25.25874q7.03407 0 12.94909 1.918385 5.91502 1.918384 10.15146 5.435423 4.31636 3.437106 6.71434 8.313001 2.39798 4.795962 2.39798 10.551117z"/><path d="m268.61544 54.88422q3.51704 1.039125 5.91502 4.076567 2.47792 3.037443 2.47792 7.833405 0 3.357174-1.03913 6.234751-1.03912 2.797644-3.51704 4.875895-2.47791 2.07825-6.71434 3.27724-4.1565 1.198991-10.47119 1.198991h-47.00042v-32.53261h47.32015q1.83846 0 3.19731-.719394 1.43879-.799327 1.43879-2.877577 0-1.998318-1.43879-2.717712-1.43879-.719394-3.19731-.719394h-47.32015l11.19057-13.90829h35.41019q4.79596 0 8.63273.959192 3.9167.87926 6.63442 2.797645 2.79764 1.838452 4.23643 4.636096 1.51872 2.717712 1.51872 6.394616 0 2.397981-.63946 4.236434-.63946 1.838452-1.67859 3.27724-.95919 1.358856-2.31805 2.318049-1.27892.879259-2.63778 1.358856zm-43.72318 6.394616v7.353808h30.45436q2.71771 0 3.9167-.959192 1.19899-.959193 1.19899-2.797645 0-1.758519-1.19899-2.637779-1.19899-.959192-3.9167-.959192z"/><path d="m59.65777 98.898872c-4.691692-1.26352-7.14389-6.46246-5.058566-10.72472.627926-1.28343 2.071275-2.79 3.300747-3.4453l1.021926-.54468.04791-7.03688c.04632-6.80306.05955-7.05247.398466-7.50621.192814-.25814.561746-.6271.819858-.81991.452844-.33828.707254-.35231 7.258267-.40039l6.788979-.0499v-2.54312-2.54313h-6.676321c-7.530901 0-7.496675.005-8.240994-1.29292l-.379772-.66243-.0029-14.57718-.0029-14.5772-.883484-.44769c-1.131728-.5735-2.677342-2.04747-3.24971-3.09909-2.546207-4.67823.280455-10.41079 5.56526-11.2865 5.882491-.97476 10.550479 5.31876 8.029411 10.8255-.566512 1.23742-2.069423 2.80085-3.34705 3.48182l-1.013496.54019v12.9973 12.99731h5.100892 5.100893v-4.09752c0-4.54194.07238-4.9187 1.083652-5.64004.449493-.32063.800896-.38817 2.274436-.4372l1.742809-.058v-4.41247c0-3.35134.0645-4.72763.268224-5.72302.540598-2.64142 1.568118-4.56633 3.472432-6.50507 7.165551-7.2951 19.420491-3.58628 21.494461 6.50507.31264 1.52117.3452 2.80229.0885 3.4817-.46523 1.23131-1.78795 1.9236-3.03419 1.58803-.80946-.21797-1.667816-1.14096-1.779406-1.91339-.0442-.30592-.15705-1.12073-.2508-1.81069-.74418-5.4773-6.917922-8.30902-11.642624-5.34015-.899722.56537-2.021932 1.77274-2.550715 2.7443-.844097 1.55088-.96499 2.44243-.96499 7.11661v4.30003h11.777219c13.259596 0 12.561866-.0676 13.341876 1.29292.31711.55312.38023.92195.38257 2.23519l.004 1.57278h5.10089 5.1009v-12.99721-12.99732l-1.02732-.54755c-1.23503-.65827-2.67693-2.16211-3.30615-3.44818-1.38033-2.82129-.7504-6.43523 1.51689-8.70252 2.98802-2.98803 7.75633-2.97771 10.75734.0233 2.25404 2.25404 2.85336 5.77429 1.47803 8.68151-.60031 1.26896-2.04534 2.7822-3.29057 3.44591l-1.02757.54755v14.47389c0 14.36791-.003 14.4793-.35797 15.21338-.24525.50662-.56438.84479-1.01341 1.07387-.61858.31557-1.02861.33436-7.29336.33436h-6.63776v2.54486 2.54486l6.78895.0481c6.5524.0465 6.8053.0602 7.25828.39867.25813.1928.62707.56175.81988.81989.33892.45374.35216.70315.39846 7.50622l.0479 7.03689 1.00809.5373c1.27276.67838 2.77598 2.24336 3.34166 3.47895 2.52327 5.51156-2.1542 11.79904-8.05084 10.82195-5.25455-.87072-8.08054-6.6222-5.54384-11.28295.57237-1.05162 2.11799-2.5256 3.24975-3.0991l.88349-.4477v-5.35308-5.35307h-5.10089-5.1009l-.00035 4.12323c-.00033 4.61363-.0709 4.95668-1.17257 5.6926l-.57768.38596h-16.102942-16.102545l-.577742-.38596c-.906199-.60537-1.172273-1.31838-1.172581-3.14215l-.000265-1.57278h-5.100893-5.100892v5.34597 5.34596l1.027319.54756c.581096.30972 1.42352.9755 1.939469 1.53278 2.227284 2.40574 2.709707 5.57305 1.305798 8.57312-1.48493 3.17323-5.301963 4.96822-8.648382 4.06699zm2.930572-5.17885c2.396053-1.15991 1.560098-4.76082-1.105225-4.76082-2.657592 0-3.49879 3.57913-1.118166 4.75754.871024.43116 1.338077.43186 2.223391.004zm61.451008-5.23159c1.55869-1.1541 1.57426-3.21394.032-4.24417-1.62157-1.08329-3.92685.1671-3.92777 2.13043-.00048.95544.73801 1.99884 1.70013 2.40218.58514.24532 1.66658.10324 2.19557-.28844zm-19.19864-25.20373v-10.20179h-12.752225-12.752237v10.20179 10.20178h12.752237 12.752225zm-14.112554 4.71832c-.727854-.49682-1.19012-1.38545-1.19012-2.28777 0-.53774-.139354-.91802-.549793-1.50031-.475665-.67483-.556951-.94487-.602868-2.00282-.04796-1.10548-.0034-1.30774.463793-2.10774.734862-1.25812 1.758084-1.83556 3.252648-1.83556 1.525448 0 2.566118.62371 3.266928 1.95796.42806.81499.48194 1.07639.4274 2.07375-.0522.95416-.15211 1.26846-.60981 1.9178-.40816.57907-.54741.95983-.54741 1.49692 0 1.5052-1.11282 2.67034-2.550439 2.67034-.550068 0-.97489-.11946-1.360329-.38257zm-27.867435-40.98056c1.139617-.76132 1.503797-2.30805.790277-3.35643-.620569-.91182-1.236278-1.2735-2.167881-1.2735-.931608 0-1.547311.36168-2.167881 1.2735-1.057091 1.55318.211065 3.74238 2.167881 3.74238.548535 0 .981396-.12127 1.377604-.38595zm61.193439-5.09751c1.15211-.78642 1.49049-2.18225.81876-3.37743-.40571-.72188-1.4454-1.3409-2.25212-1.3409-1.17965 0-2.47771 1.34861-2.47714 2.5736.00078 1.96667 2.31334 3.23494 3.9105 2.14473z" stroke-width=".170029"/></g></svg>