<svg height="7.19666mm" viewBox="0 0 65.000001 7.1966599" width="65mm" xmlns="http://www.w3.org/2000/svg">
  <g fill="#1a1a1a" transform="translate(-86.170207 -129.42688)">
    <path d="m101.91861 133.4168q0 3.20674-4.413233 3.20674-1.28058 0-2.201327-.20108-.920747-.20108-1.523995-.60325-.592665-.40216-.878414-.99483-.275165-.60325-.275165-1.40758v-3.9899h2.180159v3.9899q0 .39158.105833.65617.105833.26458.391582.43391.296333.15875.825498.23283.529165.0635 1.375829.0635.634998 0 1.05833-.0741.423332-.0741.677331-.24341.253999-.16934.359832-.43392.116416-.26458.116416-.635v-3.9899h2.201324z"/>
    <path d="m107.25258 132.24206-1.06892 1.36524h-3.53482l1.06891-1.36524z"/>
    <path d="m114.62912 132.25264q1.30175 0 1.97908.48683.67733.47625.67733 1.44991 0 .53975-.16933.97367-.16933.43391-.53975.73024-.37041.29634-.9525.45509-.57149.15875-1.37583.15875h-6.59339l1.40758-1.82033h5.35515q.39158 0 .5715-.11642.17991-.127.17991-.40216 0-.27517-.17991-.39159-.17992-.11641-.5715-.11641h-3.85232q-.68792 0-1.18533-.14817-.49742-.14816-.8255-.41275-.32808-.26458-.48683-.63499-.15875-.381-.15875-.83609 0-.49741.16933-.89958.17992-.41274.53975-.69849.37042-.28575.94191-.4445.58208-.15875 1.38642-.15875h6.14889l-1.40758 1.84149h-4.91065q-.381 0-.5715.10584-.17991.10583-.17991.38099 0 .27517.17991.39159.1905.10583.5715.10583z"/>
    <path d="m126.48241 134.6868-1.40758 1.82033h-6.81564v-7.08023h8.20205l-1.41816 1.84149h-4.58257v.84667h5.60915l-1.25941 1.60866h-4.34974v.96308z"/>
    <path d="m137.27737 136.50713h-2.93157l-1.57691-1.87325h-3.36549v1.87325h-2.19074v-3.61949h6.15948q.50799 0 .85724-.21167.34925-.21166.34925-.58208 0-.41275-.3175-.61383-.3175-.21167-.88899-.21167h-6.15948l1.42874-1.84149h4.55082q.60325 0 1.24883.11641.64558.10584 1.17475.39159.52916.28575.86783.77258.34924.48683.34924 1.24883 0 .41275-.127.78316-.12699.37042-.37041.66675-.23283.29633-.58208.508-.33867.20108-.77258.28575.17991.13758.40216.34925.22225.21166.59267.58208z"/>
    <path d="m147.40558 132.08331q0 .59266-.23284 1.07949-.23283.47625-.68791.81492-.4445.33866-1.09008.52916-.64558.1905-1.47108.1905h-3.70415v1.80975h-2.18016v-3.61949h6.09598q.508 0 .78316-.22225.28575-.22225.28575-.59267 0-.37041-.28575-.58208-.27516-.22225-.78316-.22225h-6.09598l1.44991-1.84149h4.44499q.82549 0 1.47107.20108.64559.1905 1.09008.53975.4445.34925.67733.83608.23284.48683.23284 1.0795z"/>
  </g>
  <g transform="translate(-145.236315 -275.05071)">
    <path d="m-66.486405 417.93626c-.4489-.19545-1.07398-.6831-1.38906-1.08366l-.57287-.72829v-41.52922c0-38.66921.0311-41.58185.45139-42.29338 1.0446-1.76836 3.7004-2.03467 5.21244-.52267l.81846.81843.0687 39.41785.0687 39.41785h60.7193001 60.7192999v-39.03918c0-43.11792-.12434-40.04834 1.66649-41.14027 1.81558-1.10703 4.23653-.26323 4.88442 1.7024.2633.79884.3188 9.60382.26458 41.97356-.0686 40.96121-.0686 40.96269-.61658 41.70964-.30139.41084-.95624.95515-1.45521 1.20959-.85655.43676-4.51423.46205-65.4655699.45266-53.4360201-.008-64.6989401-.0712-65.3745201-.36531zm95.27244-15.37422c-1.88226-.65564-2.84628-2.52655-2.15177-4.17605.19531-.46389 1.48026-2.56985 2.85543-4.6799s2.58077-3.97018 2.67912-4.13361c.10608-.17627-1.11854-1.38715-3.01033-2.97656l-3.18916-2.67941h-2.70179c-2.69834 0-2.70236.001-3.15332.7644-.77282 1.30826-4.09471 4.69319-5.95534 6.06835-8.7642799 6.4775-19.6734499 6.99794-28.81125 1.37449-2.49906-1.53794-5.8376-4.57879-7.36159-6.70518l-1.05833-1.47667-2.87468-.0127-2.87467-.0127-3.07845 2.6912c-1.69315 1.48016-3.17117 2.76945-3.28448 2.86509-.11332.0956.50466 2.12905 1.37328 4.5187 1.98625 5.46431 1.9991 5.52107 1.51375 6.68268-.52689 1.26102-1.80702 2.02549-3.39385 2.02675-2.07725.002-2.32711-.3779-4.8564-7.37719-1.22978-3.40315-2.23596-6.39172-2.23596-6.64124 0-1.38027.71983-2.21766 5.53699-6.44131 2.73254-2.39587 5.3371-4.54687 5.78791-4.77999.5424-.28048 1.50491-.42386 2.84547-.42386 1.82276 0 2.00746-.0464 1.84262-.46302-.42321-1.06958-1.22523-4.54223-1.3749-5.95312l-.16139-1.52136-6.51075-.001c-6.06359-.00079-6.57089-.0377-7.38656-.53495-1.07381-.65469-1.74307-2.12687-1.51633-3.3355.22733-1.21178 1.31327-2.41118 2.4753-2.73392.53635-.14897 3.68385-.27152 6.99445-.27233 3.3106-.00079 6.01927-.0479 6.01927-.10454 0-.61197.92274-4.68691 1.32813-5.8652.28817-.8376.52395-1.68286.52395-1.87836 0-.28245-.85592-.35574-4.16718-.35685-3.50979-.001-4.28122-.0742-4.88999-.46302-.39754-.25389-2.67491-2.86554-5.06082-5.80364-4.65741-5.73526-5.01601-6.40834-4.31198-8.09331.5775-1.38214 1.59862-2.04273 3.15762-2.04273 1.23288 0 1.41001.0874 2.54679 1.25677.67197.69122 2.55976 2.89388 4.1951 4.89479l2.97334 3.63802h4.62889 4.62889l2.90315-2.92316 2.90315-2.92317-.26657-2.12597c-.41101-3.27785.19232-6.93638 1.61892-9.81696 1.12707-2.27578 2.14027-3.63112 4.04977-5.41738 5.8319401-5.45549 14.7108601-5.41139 20.5554501.1021 4.1671699 3.9311 6.2574999 9.61684 5.5652499 15.13765l-.2659 2.12056 2.90315 2.92317 2.90315 2.92316h4.83116 4.83116l3.26777-4.23581c3.99519-5.17873 4.40824-5.55377 6.1164-5.55377 2.23627 0 3.79606 1.97401 3.21698 4.07129-.26929.97526-8.07906 11.20822-9.09968 11.92309-.47179.33046-1.44434.40978-5.02409.40978-3.53953 0-4.43904.072-4.43904.35546 0 .1955.23578 1.04076.52395 1.87836.3985 1.15824 1.32813 5.24981 1.32813 5.84544 0 .0458 3.06586.12196 6.81302.16921 6.1706.0778 6.8829.13327 7.55415.58822.93148.63132 1.50897 1.72877 1.50393 2.85799-.005 1.19102-.49579 2.06585-1.56044 2.78332-.87301.58832-1.06024.60325-7.56522.60325h-6.67006l-.16139 1.52136c-.14967 1.41089-.95169 4.88354-1.3749 5.95312-.1632.41246.006.46302 1.54767.46302.95198 0 2.05863.12462 2.45922.27692.4006.1523 3.13541 2.2962 6.07736 4.76422 6.74737 5.66039 6.83101 5.8295 4.64979 9.40112-2.79526 4.57706-6.91087 10.6674-7.36677 10.90146-.95164.48857-1.82257.54361-2.86365.18098zm-34.6604199-65.76276c3.69386-.72925 8.94346-.37622 12.50156.84072l1.38907.47509v-.98849c0-1.25238-.64054-3.73156-1.29451-5.01035-.87193-1.70498-2.60217-3.42034-4.31169-4.2746-1.38723-.6932-1.91628997-.81056-3.65422-.81056-1.73793 0-2.26699.11736-3.65422.81056-1.70952.85426-3.43976 2.56962-4.31169 4.2746-.65397 1.27879-1.2945101 3.75797-1.2945101 5.01035v.98849l1.3890701-.47509c.76398-.26129 2.2225-.63962 3.24114-.84072zm-60.9317201-11.34463c-1.95659-.90358-2.65122-3.38469-1.46959-5.24921 1.40676-2.21978 4.98067-2.08919 6.22306.22739 1.70344 3.17624-1.47615 6.53532-4.75347 5.02182zm128.39053.23667c-1.39102-.40453-2.31209-1.62448-2.42993-3.21843-.12654-1.71157.54842-2.95944 1.908-3.52751 2.64832-1.10654 5.15868.49002 5.16109 3.28239.001 1.50648-.66077 2.57556-1.995 3.22144-1.17634.56946-1.43656.59329-2.64416.24211zm-128.50808-13.89107c-1.52753-.82882-1.52468-.80205-1.52468-14.35367 0-12.33269.004-12.41758.57359-13.14207 1.22515-1.55754-3.29561-1.45887 66.8205101-1.45842 60.8845999.00039 64.5515399.0264 65.4079199.46302.49897.25444 1.15382.79864 1.45521 1.20934.53216.72519.5501 1.08824.62187 12.58934.0821 13.15621.051 13.45653-1.50209 14.50165l-.89903.60499-65.1145099-.0106c-57.0782701-.009-65.2039001-.0591-65.8387901-.4036zm95.31281-14.00561v-3.04271h-2.91041-2.91042v3.04271 3.04271h2.91042 2.91041zm11.84877-.0662.0748-2.97656h-3.05137-3.05138v3.05137 3.05138l2.97657-.0748 2.97656-.0748zm11.69915.0662v-3.04271h-3.04271-3.04271v2.86632c0 1.57647.0794 2.94569.17639 3.04271.097.097 1.46623.17639 3.04271.17639h2.86632z" fill="#1a1a1a" stroke-width=".264583"/>
    <rect fill="#f9f9f9" height="23.346855" ry="1.950857" width="83.366989" x="-65.432228" y="285.93005"/>
    <g fill-rule="evenodd" transform="matrix(.11417686 0 0 .11417686 -59.919905 288.04104)">
      <path d="m529.907 140.222h16.497l28.544-72.336h-16.33l-11.798 36.027-12.43-36.027h-18.226l21.703 52.25zm-81.883-55.164v37.08h-16.644v-54.25h11.695l3.476 4.738c4.53-3.8 9.374-6.004 14.958-6.004 7.48 0 13.167 2.214 16.644 7.693 5.056-4.638 10.43-7.693 17.278-7.693 12.85 0 20.33 6.638 20.33 24.652v30.864h-16.643v-28.968c0-8.322-3.373-10.746-8.746-10.746-3.16 0-5.79.842-8.743 2.74.213 1.896.317 3.897.317 6.1v30.865h-16.644v-28.959c0-8.322-3.372-10.746-8.85-10.746-3.055 0-5.583.738-8.428 2.635zm-58.05 4.635h21.386c-1.16-7.057-4.952-10.43-10.64-10.43-4.848 0-9.48 2.846-10.746 10.43zm11.905 33.498c-16.012 0-28.866-7.9-28.866-28.76 0-19.49 12.433-27.915 26.76-27.915 17.275 0 24.965 12.113 24.965 31.18h-34.87c1.16 9.374 6.955 12.115 14.646 12.115 7.437 0 13.255-1.835 17.757-4.864l-2.26 13.202c-4.296 3.32-9.454 5.04-18.133 5.04zm-61.975-14.01c3.8 0 6.636-.634 9.585-2.845v-23.596c-2.632-1.582-5.264-2.317-9.058-2.317-8.11 0-12.746 5.477-12.746 14.64 0 8.956 4.74 14.12 12.22 14.12zm12.85 8.953c-4.318 3.266-9.267 5.267-16.327 5.267-14.853 0-25.597-9.164-25.597-28.022 0-18.75 12.326-28.863 28.126-28.863 3.686 0 7.27.528 10.533 1.8v-23.036h16.646v76.856h-10.535zm-112.447-28.127v-40.207h17.276v39.892c0 14.326 6.425 17.275 15.274 17.275 9.588 0 14.537-4.214 14.537-17.275v-39.892h17.382v40.206c0 23.704-10.322 33.605-32.76 33.605-20.86 0-31.71-8.532-31.71-33.605z" fill="#645a53"/>
      <path d="m201.12239 93.164859a5.31 5.31 0 0 0 -2.347-1.103c-5.067 5.05-11.25 10.370001-16.74 13.946001-2.533 1.683-5.72 2.525-7.83 2.525-4.856 0-6.966-4.63-7.6-12.000001-.844-9.886-1.415-21.727-1.415-40.028 0-18.77-4.26-31.53-15.607-32.53-.48-.043-.965-.072-1.47-.072-6.967 0-10.345 3.575-14.777 12.62-3.8 7.782-9.7 19.14-20.686 40.595-9.5 18.512-20.053003 34.920001-29.132003 46.278001-2.528 3.148-4.526 5.31-6.404 6.542-1.255.826-2.46 1.24-3.727 1.24-3.583 0-6.198-3.024-7.072-10.064-.208-1.673-.317-3.573-.317-5.712 0-14.513 5.5-38.072001 14.987-72.780001 6.967-25.231 4.012-42.47700013-11.189-42.47700013h-.17l-.01.002c-3.442.04-6.295 1.28700003-9.045 3.45000003-2.706 2.13-5.415 6.7340001-7.943 12.9230001-2.85 6.97-20.182 41.735-47.7659999 59.643-.325 6.81 3.53 13.615 11.3399999 14.353 7.1.674 12.16-2.323 18.66-6.69a1796.95 1796.95 0 0 0 -2.576 11.668l-.904 4.14a116.164 116.164 0 0 0 -1.965 11.811001c-3.9 34.767 12.224 51.922 31.095 51.922 3.154 0 6.28-.375 9.382-1.164 20.792-5.272 40.810003-29.122 64.500003-84.024001-.36 5.972-.397 11.55-.138 16.726 1.56 31.466001 14.006 40.907001 31.6 40.907001 13.3 0 25.753-6.94 32.085-15.565 4.645-6.1 6.545-12.832 6.545-18.1 0-4.082001-1.295-7.340001-3.354-8.994001" fill="#ea5252"/>
    </g>
  </g>
</svg>
